<?xml version="1.0" encoding="utf-8"?>
<!-- Generator: Adobe Illustrator 19.1.0, SVG Export Plug-In . SVG Version: 6.00 Build 0)  -->
<svg version="1.1" id="Calque_1" xmlns="http://www.w3.org/2000/svg" xmlns:xlink="http://www.w3.org/1999/xlink" x="0px" y="0px"
	 viewBox="-1367 2785.1 99.2 99.2" style="enable-background:new -1367 2785.1 99.2 99.2;" xml:space="preserve">
<style type="text/css">
	.st0{display:none;fill:#F70B0B;}
	.st1{fill:none;}
	.st2{fill:#FBB901;}
</style>
<rect x="-1623.7" y="3140.2" class="st0" width="135.1" height="97"/>
<g>
	<path class="st1" d="M-1347,2813.3v1.6h6.2c0-1,0.1-1.8,0-2.3c-1.1-0.2-2.8,0.1-4.7-0.1h-0.1c-0.1,0-0.3,0-0.4,0l0,0
		c-0.4,0-0.9,0.1-1,0.1h-0.1c0,0,0,0.1,0,0.3C-1347.1,2813-1347,2813.1-1347,2813.3z"/>
	<path class="st1" d="M-1281.8,2818.1c-2.7-0.5-5.6-0.1-8.7-0.2c-0.5,0.1-0.9-0.1-1.3-0.4l-0.1-0.1c-0.3-0.3-0.4-0.8-0.4-1.2
		c0-1.5,0.1-2.9-0.1-4.1c-0.2-1.2-0.5-2-1.5-2.7c-1.9-1.2-4.7-0.5-7.9-0.7c-5.1,0-10.3,0-15.4,0l0,0c-3.1,0-6.1,0-9.2,0
		c-1.2,0.1-2,0.7-2.6,1.7s-0.9,2.3-0.7,3.5c0,0.1,0,0.1,0,0.2v2c0.1,0.5-0.1,0.9-0.4,1.3l0,0l0,0c-0.3,0.3-0.8,0.5-1.3,0.4h-20.1
		c-0.1,0-0.1,0-0.2,0c-2.7-0.4-5.6,1.4-5.8,4.1c-0.1,11.7,0,23.4,0,35c0,0.1,0,0.1,0,0.2c-0.2,1.3,0.2,2.8,0.9,3.9
		c0.7,1.1,1.8,1.8,3.1,1.9c23,0.1,46,0,69,0c0.1,0,0.1,0,0.2,0c2.7,0.4,5.6-1.4,5.8-4.1c0.1-11.6,0-23.2,0-34.8c0-0.1,0-0.1,0-0.2
		c0.1-1.3-0.1-2.7-0.6-3.7C-1279.8,2819.2-1280.6,2818.5-1281.8,2818.1z M-1345.1,2860.2h-4c-1.6,0-3.2-0.4-4.3-1.5
		c-1.1-1.1-1.6-2.6-1.6-4.4v-9.7c0-0.8,0.6-1.5,1.5-1.5l0,0c0.8,0,1.5,0.7,1.5,1.5v9.7c0,1.2,0.3,1.9,0.7,2.2
		c0.4,0.4,1.1,0.6,2.2,0.6h4l0,0c0.8,0,1.5,0.7,1.5,1.5C-1343.6,2859.5-1344.3,2860.2-1345.1,2860.2z M-1340.2,2829.2
		c0,0.8-0.7,1.5-1.5,1.5h-8.9c-0.8,0-1.5-0.7-1.5-1.5v-1.5c0-0.8,0.7-1.5,1.5-1.5h8.9c0.8,0,1.5,0.7,1.5,1.5V2829.2z M-1311,2858.6
		c-11.3,0-20.5-9.2-20.5-20.5s9.2-20.5,20.5-20.5c11.3,0,20.5,9.2,20.5,20.5S-1299.7,2858.6-1311,2858.6z"/>
	<path class="st1" d="M-1311,2820.6c-9.7,0-17.5,7.8-17.5,17.5s7.8,17.5,17.5,17.5c9.7,0,17.5-7.8,17.5-17.5
		S-1301.3,2820.6-1311,2820.6z M-1311,2848.2c-5.5,0-9.9-4.6-9.9-10.1l0,0c0-0.8,0.7-1.5,1.5-1.5c0.8,0,1.5,0.7,1.5,1.5
		c0,4,3.1,7.1,6.9,7.1c3.8,0,6.9-3.1,6.9-7.1s-3.1-7.1-6.9-7.1l0,0c-0.8,0-1.5-0.7-1.5-1.5c0-0.8,0.7-1.5,1.5-1.5
		c5.5,0,9.9,4.6,9.9,10.1C-1301.1,2843.7-1305.5,2848.2-1311,2848.2z"/>
	<path class="st2" d="M-1311,2817.6c-11.3,0-20.5,9.2-20.5,20.5s9.2,20.5,20.5,20.5c11.3,0,20.5-9.2,20.5-20.5
		S-1299.7,2817.6-1311,2817.6z M-1311,2855.6c-9.7,0-17.5-7.8-17.5-17.5s7.8-17.5,17.5-17.5c9.7,0,17.5,7.8,17.5,17.5
		S-1301.3,2855.6-1311,2855.6z"/>
	<path class="st2" d="M-1276.6,2818.9c-0.9-1.7-2.4-3.1-4.4-3.7h-0.1c-2.8-0.5-5.5-0.3-8-0.3c0-1,0-2.1-0.1-3.3
		c-0.3-1.7-1.1-3.6-2.9-4.8l0,0c-1.6-1-3.3-1.2-5-1.2l0,0c-1.6,0-3.1,0.2-4.4,0.1h-0.1c-8.2,0-16.5,0-24.8,0h-0.1
		c-2.2,0.2-3.9,1.4-5,3c-1,1.6-1.4,3.5-1.2,5.4v0.7h-4.9c0.1-1.1,0.3-2.6-0.5-4.2c-0.2-0.3-0.4-0.6-0.7-0.7c-2.4-1-4.6-0.4-6.1-0.5
		c-1-0.2-2.2-0.2-3.3,0.4c-0.6,0.3-1.1,0.8-1.4,1.5c-0.3,0.6-0.3,1.4-0.2,2.1v1.4h-1.5c-4.2-0.6-8.8,2.3-9.1,6.9v0.1
		c-0.1,11.7,0,23.4,0,35c-0.3,2.1,0.2,4.2,1.4,5.9c1.2,1.7,3.1,3.1,5.4,3.3h0.1c23,0.1,46,0,69,0c4.2,0.6,8.8-2.3,9.1-6.9v-0.1
		c0.1-11.6,0-23.2,0-34.8C-1275.5,2822.5-1275.8,2820.6-1276.6,2818.9z M-1347.1,2812.6L-1347.1,2812.6c0.2-0.1,0.6-0.2,1.1-0.2l0,0
		c0.1,0,0.3,0,0.4,0h0.1c1.9,0.2,3.5-0.1,4.7,0.1c0.1,0.6,0,1.4,0,2.3h-6.2v-1.6c0-0.1,0-0.2,0-0.4
		C-1347.1,2812.7-1347.1,2812.6-1347.1,2812.6z M-1278.7,2824c0,0.1,0,0.1,0,0.2c0,11.6,0,23.2,0,34.8c-0.2,2.7-3.1,4.5-5.8,4.1
		c-0.1,0-0.1,0-0.2,0c-23,0-46,0-69,0c-1.3-0.1-2.4-0.8-3.1-1.9c-0.7-1.1-1.1-2.6-0.9-3.9c0-0.1,0-0.1,0-0.2c0-11.7,0-23.4,0-35
		c0.2-2.7,3.1-4.5,5.8-4.1c0.1,0,0.1,0,0.2,0h20.1c0.5,0.1,1-0.1,1.3-0.4l0,0l0,0c0.3-0.3,0.5-0.8,0.4-1.3v-2c0-0.1,0-0.1,0-0.2
		c-0.2-1.2,0.1-2.5,0.7-3.5s1.5-1.6,2.6-1.7c3.1,0,6.1,0,9.2,0l0,0c5.1,0,10.3,0,15.4,0c3.2,0.2,6-0.4,7.9,0.7
		c1,0.6,1.4,1.4,1.5,2.7c0.2,1.2,0.1,2.6,0.1,4.1c-0.1,0.4,0.1,0.9,0.3,1.2l0.1,0.1c0.3,0.3,0.8,0.5,1.3,0.4
		c3.1,0.1,6.1-0.2,8.7,0.2c1.2,0.3,1.9,1.1,2.5,2.2C-1278.8,2821.4-1278.5,2822.7-1278.7,2824z"/>
	<path class="st2" d="M-1341.7,2826.2h-8.9c-0.8,0-1.5,0.7-1.5,1.5v1.5c0,0.8,0.7,1.5,1.5,1.5h8.9c0.8,0,1.5-0.7,1.5-1.5v-1.5
		C-1340.2,2826.9-1340.9,2826.2-1341.7,2826.2z"/>
	<path class="st2" d="M-1345.1,2857.2L-1345.1,2857.2h-4c-1.1,0-1.8-0.3-2.2-0.6c-0.4-0.4-0.7-1-0.7-2.2v-9.7c0-0.8-0.6-1.5-1.5-1.5
		l0,0c-0.8,0-1.5,0.7-1.5,1.5v9.7c0,1.8,0.5,3.3,1.6,4.4c1.1,1.1,2.6,1.5,4.3,1.5h4c0.8,0,1.5-0.7,1.5-1.5
		C-1343.6,2857.9-1344.3,2857.2-1345.1,2857.2z"/>
	<path class="st2" d="M-1311,2828c-0.8,0-1.5,0.6-1.5,1.5c0,0.8,0.7,1.5,1.5,1.5l0,0c3.8,0,6.9,3.2,6.9,7.1c0,4-3.1,7.1-6.9,7.1
		c-3.8,0-6.9-3.1-6.9-7.1c0-0.8-0.6-1.5-1.5-1.5c-0.8,0-1.5,0.7-1.5,1.5l0,0c0,5.6,4.4,10.1,9.9,10.1s9.9-4.6,9.9-10.1
		C-1301.1,2832.5-1305.5,2828-1311,2828z"/>
</g>
</svg>
