<?xml version="1.0" encoding="utf-8"?>
<!-- Generator: Adobe Illustrator 19.1.0, SVG Export Plug-In . SVG Version: 6.00 Build 0)  -->
<svg version="1.1" id="Calque_1" xmlns="http://www.w3.org/2000/svg" xmlns:xlink="http://www.w3.org/1999/xlink" x="0px" y="0px"
	 viewBox="-246.3 376.7 99.2 99.2" style="enable-background:new -246.3 376.7 99.2 99.2;" xml:space="preserve">
<style type="text/css">
	.st0{fill:#FFFFFF;}
</style>
<g>
	<path class="st0" d="M-152.2,429.5h-13.1c0.4-1,0.7-2.2,0.7-3.5c0-3.5-4.5-8.6-9.6-10.9c-0.1-0.1-0.3-0.1-0.4-0.1v-6.9
		c0-0.7-0.5-1.2-1.2-1.2h-7.9c0.5-1.1,0.9-2.3,1.1-3.6c0,0,0.1-0.1,0.1-0.1c0.1-0.2,0.1-0.4,0-0.7c0-0.4,0-0.7,0-1.1
		c0-7.3-5.9-13.3-13.3-13.3s-13.3,5.9-13.3,13.3c0,1.9,0.4,3.8,1.2,5.5h-7.9c-0.7,0-1.2,0.5-1.2,1.2v6.9c-0.1,0-0.2,0-0.3,0.1
		c-7.5,3.4-11.2,9.2-12.2,10.9c-1.9,0.5-3.4,1.8-4.3,3.5h-8.4c-0.7,0-1.2,0.5-1.2,1.2c0,0.7,0.5,1.2,1.2,1.2h7.6
		c0,0.3-0.1,0.5-0.1,0.8c0,0.5,0.1,1.1,0.2,1.7c0,0.2,0.1,0.3,0.3,0.5c-0.3,0.6-0.5,1.3-0.5,1.9c0,0.4,0.1,0.9,0.3,1.4
		c0.2,0.5,0.6,0.8,1.2,0.8h11.2c0.5,0,1-0.3,1.2-0.8c0.2-0.5,0.3-1,0.3-1.4c0-0.7-0.2-1.3-0.5-1.9c0.1-0.1,0.2-0.3,0.3-0.5
		c0.2-0.6,0.2-1.2,0.2-1.7c0-0.3,0-0.5-0.1-0.8h3.6v7c0,0.7,0.5,1.2,1.2,1.2h40c0.6,0,1.1-0.5,1.2-1.1c3.4,1.9,3.9,4.9,3.5,8.4
		h-64.3c-0.7,0-1.2,0.5-1.2,1.2c0,0.7,0.5,1.2,1.2,1.2h64c-0.1,0.5-0.2,1.1-0.3,1.7c-0.9,5.1-1.9,10.8,3.3,14.2
		c0.2,0.1,0.4,0.2,0.7,0.2c0.4,0,0.8-0.2,1-0.6c0.4-0.6,0.2-1.3-0.3-1.7c-3.8-2.5-3-6.8-2.2-11.7c0.1-0.7,0.2-1.4,0.3-2.1h11.2
		c0.7,0,1.2-0.5,1.2-1.2c0-0.7-0.5-1.2-1.2-1.2h-10.9c0.4-4.4-0.4-8.6-6-11.1v-0.9c2.4-0.3,5.5-1.3,7.6-3.5h14.7
		c0.7,0,1.2-0.5,1.2-1.2C-151,430.1-151.5,429.5-152.2,429.5z M-185,401c-1.8-0.7-3.3-1.5-4.2-2.1c1.5-0.8,2.6-1.5,3.3-2
		C-185.4,398.2-185.1,399.6-185,401z M-195.8,390.6c3.5,0,6.6,1.7,8.5,4.2c-2.1,1.4-8,4.9-19.1,8.5c-0.1-0.6-0.2-1.3-0.2-1.9
		C-206.6,395.5-201.8,390.6-195.8,390.6z M-205.7,405.7c6.1-1.9,10.7-3.9,13.9-5.5c1,0.7,3.3,2.1,6.5,3.3c-0.2,1.2-0.6,2.3-1.3,3.4
		h-18.6C-205.4,406.5-205.6,406.1-205.7,405.7z M-227.6,428.2c2.5,0,4.6,2,4.6,4.6c0,0.1,0,0.1,0,0.2h-0.4h-8.4h-0.4
		c0-0.1,0-0.1,0-0.2C-232.2,430.3-230.2,428.2-227.6,428.2z M-232.2,436.7c0.1-0.5,0.5-0.9,0.8-1.2h7.5c0.3,0.3,0.7,0.7,0.8,1.2
		H-232.2z M-221.4,429.5c-1-1.9-2.9-3.3-5.1-3.7c1.5-2.1,4.5-5.7,9.5-8.2v11.8C-217,429.5-221.4,429.5-221.4,429.5z M-177,437.7
		h-37.5v-28.4h8.8h20h8.8L-177,437.7L-177,437.7z M-174.6,433v-7.2l1.2-0.3c0.7-0.2,1.1-0.8,0.9-1.5s-0.8-1.1-1.5-0.9l-0.6,0.1v-5.6
		c4.4,2.2,7.5,6.4,7.5,8.4C-167,431.2-172.1,432.6-174.6,433z"/>
	<path class="st0" d="M-195.8,419c-2.5,0-4.6,2.1-4.6,4.6c0,2.5,2.1,4.6,4.6,4.6c2.5,0,4.6-2.1,4.6-4.6
		C-191.2,421-193.3,419-195.8,419z M-195.8,425.7c-1.2,0-2.1-1-2.1-2.1s1-2.1,2.1-2.1c1.2,0,2.1,1,2.1,2.1S-194.6,425.7-195.8,425.7
		z"/>
</g>
</svg>
