<?xml version="1.0" encoding="utf-8"?>
<!-- Generator: Adobe Illustrator 19.1.0, SVG Export Plug-In . SVG Version: 6.00 Build 0)  -->
<svg version="1.1" id="Calque_1" xmlns="http://www.w3.org/2000/svg" xmlns:xlink="http://www.w3.org/1999/xlink" x="0px" y="0px"
	 viewBox="-1367 2785.1 99.2 99.2" style="enable-background:new -1367 2785.1 99.2 99.2;" xml:space="preserve">
<style type="text/css">
	.st0{fill:none;stroke:#FFFFFF;stroke-width:2;stroke-linecap:round;stroke-linejoin:round;stroke-miterlimit:10;}
	.st1{fill:none;stroke:#FFFFFF;stroke-width:2;stroke-miterlimit:10;}
</style>
<path class="st0" d="M-1316.2,2856.5l-7,22l-8-10l-13,4l8-23"/>
<path class="st0" d="M-1301.1,2849.6l10.9,18.9l-12-1l-7,11l-9-14"/>
<path class="st1" d="M-1291.7,2841.6c0-4.1,2.4-9.9,5.3-12.8c2.9-2.9,2.9-7.7,0-10.6c-2.9-2.9-5.3-8.7-5.3-12.8
	c0-4.1-3.4-7.5-7.5-7.5c-4.1,0-9.9-2.4-12.8-5.3s-7.7-2.9-10.6,0s-8.7,5.3-12.8,5.3s-7.5,3.4-7.5,7.5c0,4.1-2.4,9.9-5.3,12.8
	c-2.9,2.9-2.9,7.7,0,10.6c2.9,2.9,5.3,8.7,5.3,12.8c0,4.1,3.4,7.5,7.5,7.5s9.9,2.4,12.8,5.3c2.9,2.9,7.7,2.9,10.6,0
	c2.9-2.9,8.7-5.3,12.8-5.3C-1295,2849-1291.7,2845.7-1291.7,2841.6z"/>
<path class="st1" d="M-1299.4,2836.1c0-2.9,1.7-6.9,3.7-8.9s2-5.3,0-7.4c-2-2-3.7-6-3.7-8.9c0-2.9-2.3-5.2-5.2-5.2s-6.9-1.7-8.9-3.7
	s-5.3-2-7.4,0c-2,2-6,3.7-8.9,3.7c-2.9,0-5.2,2.3-5.2,5.2c0,2.9-1.7,6.9-3.7,8.9s-2,5.3,0,7.4c2,2,3.7,6,3.7,8.9s2.3,5.2,5.2,5.2
	c2.9,0,6.9,1.7,8.9,3.7s5.3,2,7.4,0c2-2,6-3.7,8.9-3.7C-1301.8,2841.3-1299.4,2838.9-1299.4,2836.1z"/>
<polyline class="st0" points="-1327.2,2824.5 -1321.2,2830.5 -1307.2,2815.5 "/>
</svg>
