<?xml version="1.0" encoding="utf-8"?>
<!-- Generator: Adobe Illustrator 19.1.0, SVG Export Plug-In . SVG Version: 6.00 Build 0)  -->
<svg version="1.1"
	 id="Calque_1" xmlns:svg="http://www.w3.org/2000/svg" xmlns:cc="http://creativecommons.org/ns#" xmlns:sodipodi="http://sodipodi.sourceforge.net/DTD/sodipodi-0.dtd" xmlns:rdf="http://www.w3.org/1999/02/22-rdf-syntax-ns#" xmlns:inkscape="http://www.inkscape.org/namespaces/inkscape" xmlns:dc="http://purl.org/dc/elements/1.1/"
	 xmlns="http://www.w3.org/2000/svg" xmlns:xlink="http://www.w3.org/1999/xlink" x="0px" y="0px" viewBox="-1367 2785.1 99.2 99.2"
	 style="enable-background:new -1367 2785.1 99.2 99.2;" xml:space="preserve">
<style type="text/css">
	.st0{fill:#FFFFFF;}
</style>
<path class="st0" d="M-1317.1,2800.7c-7.1,0-13,6.5-13,14.4c0,8,5.8,14.4,13,14.4c7.2,0,13-6.5,13-14.4
	C-1304.2,2807.1-1310,2800.7-1317.1,2800.7z M-1317.1,2807.5c3.4,0,6.1,3.4,6.1,7.6s-2.7,7.6-6.1,7.6s-6.1-3.4-6.1-7.6
	C-1323.3,2810.9-1320.5,2807.5-1317.1,2807.5z M-1346.8,2810.2c-5,0-9.1,4.6-9.1,10.3s4.1,10.3,9.1,10.3s9.2-4.6,9.2-10.3
	S-1341.7,2810.2-1346.8,2810.2z M-1288.1,2810.2c-5,0-9.2,4.6-9.2,10.3s4.1,10.3,9.2,10.3c5,0,9.1-4.6,9.1-10.3
	C-1278.9,2814.8-1283,2810.2-1288.1,2810.2z M-1346.8,2813.7c3.2,0,5.7,3.1,5.7,6.9s-2.6,6.9-5.7,6.9c-3.2,0-5.7-3.1-5.7-6.9
	C-1352.5,2816.7-1349.9,2813.7-1346.8,2813.7z M-1288.1,2813.7c3.2,0,5.7,3.1,5.7,6.9s-2.6,6.9-5.7,6.9c-3.2,0-5.7-3.1-5.7-6.9
	C-1293.8,2816.7-1291.2,2813.7-1288.1,2813.7z M-1317.4,2833.6c-4.9,0-9.9,0.8-14.6,2.5c-4.7,1.8-8.3,7.1-8,11.9
	c0.3,3.9,0.5,7.9,0.8,11.9c0.1,1.8,1.6,3.2,3.4,3.2h36.7l0,0c1.8,0,3.3-1.4,3.4-3.2l0.8-11.8c0.3-4.8-3.3-10.2-8-11.9
	C-1307.5,2834.4-1312.4,2833.6-1317.4,2833.6L-1317.4,2833.6z M-1292,2834.5c-0.9,0-1.7,0.7-1.7,1.7c0,0.9,0.7,1.7,1.7,1.7
	c3.6,0.1,7,0.7,10.4,1.9c2.3,0.9,4,3.7,3.9,5.6l-0.6,8.6h-13c-0.9,0-1.7,0.8-1.7,1.7c0,0.9,0.8,1.7,1.7,1.7h14.5
	c0.9,0,1.6-0.7,1.7-1.6l0.7-10.2c0.2-3.6-2.5-7.7-6.1-9C-1284.2,2835.3-1288.1,2834.6-1292,2834.5L-1292,2834.5L-1292,2834.5z
	 M-1342.8,2834.5c-3.9,0.1-7.8,0.8-11.5,2.1c-3.6,1.3-6.3,5.4-6.1,9l0.7,10.2c0.1,0.9,0.8,1.6,1.7,1.6h14.6c1,0,1.7-0.8,1.7-1.7
	c0-0.9-0.8-1.7-1.7-1.7h-13l-0.6-8.6c-0.1-1.9,1.5-4.7,3.8-5.6c3.3-1.2,6.8-1.8,10.4-1.9c0.9,0,1.7-0.8,1.7-1.7
	C-1341.1,2835.2-1341.9,2834.6-1342.8,2834.5L-1342.8,2834.5z M-1317.4,2840.4c4.2,0,8.3,0.7,12.2,2.1c2.2,0.8,3.6,3.5,3.5,5
	l-0.6,8.7h-30.3l0,0c-0.2-2.9-0.4-5.8-0.6-8.7c-0.1-1.5,1.3-4.2,3.5-5C-1325.7,2841.1-1321.5,2840.4-1317.4,2840.4L-1317.4,2840.4z"
	/>
</svg>
