<?xml version="1.0" encoding="utf-8"?>
<!-- Generator: Adobe Illustrator 19.1.0, SVG Export Plug-In . SVG Version: 6.00 Build 0)  -->
<svg version="1.1"
	 id="Calque_1" xmlns:dc="http://purl.org/dc/elements/1.1/" xmlns:inkscape="http://www.inkscape.org/namespaces/inkscape" xmlns:rdf="http://www.w3.org/1999/02/22-rdf-syntax-ns#" xmlns:sodipodi="http://sodipodi.sourceforge.net/DTD/sodipodi-0.dtd" xmlns:cc="http://creativecommons.org/ns#" xmlns:svg="http://www.w3.org/2000/svg"
	 xmlns="http://www.w3.org/2000/svg" xmlns:xlink="http://www.w3.org/1999/xlink" x="0px" y="0px" viewBox="-1367 2785.1 99.2 99.2"
	 style="enable-background:new -1367 2785.1 99.2 99.2;" xml:space="preserve">
<style type="text/css">
	.st0{fill:#FBB901;}
</style>
<path class="st0" d="M-1317.1,2803.5c-7.1,0-13,6.5-13,14.4c0,8,5.8,14.4,13,14.4s13-6.5,13-14.4
	C-1304.2,2809.9-1310,2803.5-1317.1,2803.5z M-1317.1,2810.3c3.4,0,6.1,3.4,6.1,7.6s-2.7,7.6-6.1,7.6s-6.1-3.4-6.1-7.6
	C-1323.3,2813.7-1320.5,2810.3-1317.1,2810.3z M-1346.8,2813c-5,0-9.1,4.6-9.1,10.3s4.1,10.3,9.1,10.3s9.2-4.6,9.2-10.3
	S-1341.7,2813-1346.8,2813z M-1288.1,2813c-5,0-9.2,4.6-9.2,10.3s4.1,10.3,9.2,10.3c5,0,9.1-4.6,9.1-10.3
	C-1278.9,2817.6-1283,2813-1288.1,2813z M-1346.8,2816.5c3.2,0,5.7,3.1,5.7,6.9s-2.6,6.9-5.7,6.9c-3.2,0-5.7-3.1-5.7-6.9
	C-1352.5,2819.5-1349.9,2816.5-1346.8,2816.5z M-1288.1,2816.5c3.2,0,5.7,3.1,5.7,6.9s-2.6,6.9-5.7,6.9c-3.2,0-5.7-3.1-5.7-6.9
	C-1293.8,2819.5-1291.2,2816.5-1288.1,2816.5z M-1317.4,2836.4c-4.9,0-9.9,0.8-14.6,2.5c-4.7,1.8-8.3,7.1-8,11.9
	c0.3,3.9,0.5,7.9,0.8,11.9c0.1,1.8,1.6,3.2,3.4,3.2h36.7l0,0c1.8,0,3.3-1.4,3.4-3.2l0.8-11.8c0.3-4.8-3.3-10.2-8-11.9
	C-1307.5,2837.2-1312.4,2836.4-1317.4,2836.4L-1317.4,2836.4z M-1292,2837.3c-0.9,0-1.7,0.7-1.7,1.7c0,0.9,0.7,1.7,1.7,1.7
	c3.6,0.1,7,0.7,10.4,1.9c2.3,0.9,4,3.7,3.9,5.6l-0.6,8.6h-13c-0.9,0-1.7,0.8-1.7,1.7s0.8,1.7,1.7,1.7h14.5c0.9,0,1.6-0.7,1.7-1.6
	l0.7-10.2c0.2-3.6-2.5-7.7-6.1-9C-1284.2,2838.1-1288.1,2837.4-1292,2837.3L-1292,2837.3L-1292,2837.3z M-1342.8,2837.3
	c-3.9,0.1-7.8,0.8-11.5,2.1c-3.6,1.3-6.3,5.4-6.1,9l0.7,10.2c0.1,0.9,0.8,1.6,1.7,1.6h14.6c1,0,1.7-0.8,1.7-1.7s-0.8-1.7-1.7-1.7
	h-13l-0.6-8.6c-0.1-1.9,1.5-4.7,3.8-5.6c3.3-1.2,6.8-1.8,10.4-1.9c0.9,0,1.7-0.8,1.7-1.7C-1341.1,2838-1341.9,2837.4-1342.8,2837.3
	L-1342.8,2837.3z M-1317.4,2843.2c4.2,0,8.3,0.7,12.2,2.1c2.2,0.8,3.6,3.5,3.5,5l-0.6,8.7h-30.3l0,0c-0.2-2.9-0.4-5.8-0.6-8.7
	c-0.1-1.5,1.3-4.2,3.5-5C-1325.7,2843.9-1321.5,2843.2-1317.4,2843.2L-1317.4,2843.2z"/>
</svg>
