<?xml version="1.0" encoding="utf-8"?>
<!-- Generator: Adobe Illustrator 19.1.0, SVG Export Plug-In . SVG Version: 6.00 Build 0)  -->
<svg version="1.1" id="Calque_1" xmlns="http://www.w3.org/2000/svg" xmlns:xlink="http://www.w3.org/1999/xlink" x="0px" y="0px"
	 viewBox="-1367 2785.1 99.2 99.2" style="enable-background:new -1367 2785.1 99.2 99.2;" xml:space="preserve">
<style type="text/css">
	.st0{fill:#FBB901;}
</style>
<path class="st0" d="M-1267.9,2833.7l-9.3-25.5c-0.1-0.4-0.4-0.7-0.7-0.9c-0.4-0.2-0.8-0.2-1.2-0.1l-17.1,6.7
	c-2.9-1.6-13.9-7.7-17.3-8.3c-0.6-0.1-1.2-0.1-1.8-0.1c-3,0-5.9,1.1-6.6,1.4c-1.8,0.2-11.1,1.4-17.4,4.6c-5.5-2.8-9.9-6.1-9.9-6.1
	c-0.3-0.2-0.8-0.4-1.2-0.3c-0.4,0.1-0.8,0.3-1,0.7l-15,22.8c-0.4,0.7-0.3,1.6,0.4,2l18.9,13.5c-0.7,1.5-0.7,3.1-0.1,4.4
	c1,2.4,3.7,3.7,5,4.3c1.1,4.3,3.8,5,5.4,5c0.5,0,1-0.1,1.5-0.2c1.5,3.4,3.6,4.1,5.2,4.1l0,0c0.8,0,1.5-0.2,2.1-0.4
	c0.9,1,2.6,2.4,5,2.7c0.3,0,0.5,0,0.7,0c1.5,0,2.4-0.6,2.9-1.1c0.7-0.7,1-1.6,1.1-2.3l3.3,2.3l0.1,0.1c0.3,0.2,2.4,1.4,4.6,1.4
	c0.7,0,1.4-0.1,2-0.4c0.8-0.3,1.8-1,2.4-2.4c1.3,0.1,3.2-0.1,4.9-1.2c1.2-0.9,2.1-2.1,2.5-3.8c1.3-0.1,3.2-0.5,4.7-1.9
	c1.1-1,1.8-2.4,2.1-4c1.3,0,3.2-0.3,4.7-1.6c1.4-1.2,2-3.1,1.9-5.4l16.5-8.3C-1268.1,2835.1-1267.7,2834.4-1267.9,2833.7z
	 M-1344.5,2847.3c-0.3-0.7-0.2-1.4,0.1-2.2c0.9-2,2.1-3.2,3-3.2c0.6,0,1.2,0.4,2,1.2c-1.1,1.4-2.6,3.7-3,6.2
	C-1343.2,2848.8-1344.1,2848.1-1344.5,2847.3z M-1339.4,2851.4L-1339.4,2851.4c-0.4-2.2,1-4.6,2.1-6.1l1-1c0.7-0.6,2.1-1.6,3.1-1.6
	c0.9,0,1.3,1.1,1.6,2.3c-1.3,1.5-4.3,5.6-4.4,9.6c-0.2,0.1-0.5,0.1-0.8,0.1C-1337.3,2854.7-1338.8,2854.7-1339.4,2851.4z
	 M-1330.2,2858.7c-1.3,0-2.2-1.7-2.8-3.2l0,0c-0.5-3,2.5-7.1,3.9-8.7c0.2-0.1,0.7-0.3,1.3-0.3c0.9,0,1.7,0.5,2.4,1.5
	c-0.6,0.3-1.2,0.8-1.8,1.4c-1.7,2.1-2.5,5.7-2.1,9.2C-1329.6,2858.6-1329.9,2858.7-1330.2,2858.7z M-1321.2,2859.7
	c0,0.2-0.1,0.8-0.4,1.1c-0.1,0.1-0.2,0.2-0.7,0.2c-0.1,0-0.2,0-0.4,0c-2-0.3-3.3-1.8-3.6-2.3c-0.5-2.8,0.1-5.9,1.4-7.4
	c0.5-0.6,1-0.9,1.6-0.9c0.2,0,1.8,0.2,2.6,2.8l-0.5,6.3V2859.7L-1321.2,2859.7z M-1289.1,2846.9c-0.9,0.8-2.3,0.9-3.2,0.8
	l-11.4-10.4c-0.6-0.6-1.6-0.5-2.1,0.1c-0.6,0.6-0.5,1.6,0.1,2.1l11,10c-0.1,1.3-0.5,2.3-1.2,2.9c-0.9,0.9-2.3,1.1-3.1,1.1
	l-10.7-10.3c-0.6-0.6-1.5-0.6-2.1,0s-0.6,1.5,0,2.1l10.4,9.9c-0.2,1.1-0.7,1.9-1.4,2.4c-0.7,0.5-1.6,0.7-2.3,0.7l-0.1-0.1l-9.4-8.9
	c-0.6-0.6-1.5-0.5-2.1,0.1s-0.5,1.6,0.1,2.1l8.2,7.7v0.1c-0.3,1.3-0.9,1.6-1.1,1.7c-1.2,0.5-3.2-0.4-3.9-0.8l-4.7-3.3l0.4-4.2
	l-0.1-0.3c-0.9-3.4-2.9-4.7-4.5-5.2c-1.7-3.5-4.2-4.1-5.6-4.1c-0.4,0-0.8,0-1.1,0.1c-1-3.2-3-3.8-4.3-3.8c-1.5,0-2.9,0.8-3.9,1.4
	c-1.4-1.5-2.8-2.2-4.3-2.2c-1.6,0-3,0.9-4.3,2.5l-17.5-12.5l13.4-20.3c1.8,1.3,5.5,3.7,9.7,5.8c0.4,0.2,1,0.2,1.4,0
	c3.3-1.8,7.8-2.9,11.4-3.7c-0.9,0.8-2,1.9-3.2,3.1c-4.9,5.1-2.8,8.2-2.5,8.6c1.2,1.4,2.9,2.1,4.8,2.1c4.2,0,8.8-3.6,10.2-4.7
	l3.6-0.4c2.5,8.5,12.1,12.2,14.1,12.9l11.7,11.7c0.1,0.1,0.2,0.1,0.2,0.2C-1288.2,2845.5-1288.6,2846.3-1289.1,2846.9z
	 M-1287.1,2841.3l-11.2-11.2c-0.2-0.2-0.4-0.3-0.6-0.4c-0.1,0-11.1-3.4-12.8-12c-0.1-0.7-0.8-1.2-1.5-1.2c-0.1,0-0.1,0-0.2,0
	l-5.4,0.6c-0.3,0-0.6,0.2-0.8,0.4c-1.3,1.2-5.5,4.2-8.6,4.2c-1,0-1.8-0.3-2.4-1c-0.1-0.3-0.5-1.8,2.3-4.7c5.1-5.3,7.2-6.2,7.2-6.2
	h0.1c0,0,2.8-1.2,5.6-1.2c0.5,0,0.9,0,1.3,0.1c2.4,0.4,11.5,5.1,16.9,8.2c0.4,0.2,0.8,0.3,1.2,0.1l16.2-6.4l8.6,22.8L-1287.1,2841.3
	z"/>
</svg>
