<?xml version="1.0" encoding="utf-8"?>
<!-- Generator: Adobe Illustrator 19.1.0, SVG Export Plug-In . SVG Version: 6.00 Build 0)  -->
<svg version="1.1" id="Calque_1" xmlns="http://www.w3.org/2000/svg" xmlns:xlink="http://www.w3.org/1999/xlink" x="0px" y="0px"
	 viewBox="-266.7 432.5 101.4 101.4" style="enable-background:new -266.7 432.5 101.4 101.4;" xml:space="preserve">
<style type="text/css">
	.st0{fill:#F5A623;}
	.st1{display:none;}
	.st2{display:inline;}
	.st3{display:inline;clip-path:url(#SVGID_2_);}
	.st4{clip-path:url(#SVGID_4_);fill:#F5A623;}
</style>
<path class="st0" d="M-166.4,481.9l-9.3-25.5c-0.1-0.4-0.4-0.7-0.7-0.9c-0.4-0.2-0.8-0.2-1.2-0.1l-17.1,6.7
	c-2.9-1.6-13.9-7.7-17.3-8.3c-0.6-0.1-1.2-0.1-1.8-0.1c-3,0-5.9,1.1-6.6,1.4c-1.8,0.2-11.1,1.4-17.4,4.6c-5.5-2.8-9.9-6.1-9.9-6.1
	c-0.3-0.2-0.8-0.4-1.2-0.3c-0.4,0.1-0.8,0.3-1,0.7l-15,22.8c-0.4,0.7-0.3,1.6,0.4,2l18.9,13.5c-0.7,1.5-0.7,3.1-0.1,4.4
	c1,2.4,3.7,3.7,5,4.3c1.1,4.3,3.8,5,5.4,5c0.5,0,1-0.1,1.5-0.2c1.5,3.4,3.6,4.1,5.2,4.1c0,0,0,0,0,0c0.8,0,1.5-0.2,2.1-0.4
	c0.9,1,2.6,2.4,5,2.7c0.3,0,0.5,0,0.7,0c1.5,0,2.4-0.6,2.9-1.1c0.7-0.7,1-1.6,1.1-2.3l3.3,2.3l0.1,0.1c0.3,0.2,2.4,1.4,4.6,1.4
	c0.7,0,1.4-0.1,2-0.4c0.8-0.3,1.8-1,2.4-2.4c1.3,0.1,3.2-0.1,4.9-1.2c1.2-0.9,2.1-2.1,2.5-3.8c1.3-0.1,3.2-0.5,4.7-1.9
	c1.1-1,1.8-2.4,2.1-4c1.3,0,3.2-0.3,4.7-1.6c1.4-1.2,2-3.1,1.9-5.4l16.5-8.3C-166.6,483.3-166.2,482.6-166.4,481.9z M-243,495.5
	c-0.3-0.7-0.2-1.4,0.1-2.2c0.9-2,2.1-3.2,3-3.2c0.6,0,1.2,0.4,2,1.2c-1.1,1.4-2.6,3.7-3,6.2C-241.7,497-242.6,496.3-243,495.5z
	 M-237.9,499.6L-237.9,499.6c-0.4-2.2,1-4.6,2.1-6.1l1-1c0.7-0.6,2.1-1.6,3.1-1.6c0.9,0,1.3,1.1,1.6,2.3c-1.3,1.5-4.3,5.6-4.4,9.6
	c-0.2,0.1-0.5,0.1-0.8,0.1C-235.8,502.9-237.3,502.9-237.9,499.6z M-228.7,506.9c-1.3,0-2.2-1.7-2.8-3.2l0,0c-0.5-3,2.5-7.1,3.9-8.7
	c0.2-0.1,0.7-0.3,1.3-0.3c0.9,0,1.7,0.5,2.4,1.5c-0.6,0.3-1.2,0.8-1.8,1.4c-1.7,2.1-2.5,5.7-2.1,9.2
	C-228.1,506.8-228.4,506.9-228.7,506.9z M-219.7,507.9c0,0.2-0.1,0.8-0.4,1.1c-0.1,0.1-0.2,0.2-0.7,0.2c-0.1,0-0.2,0-0.4,0
	c-2-0.3-3.3-1.8-3.6-2.3c-0.5-2.8,0.1-5.9,1.4-7.4c0.5-0.6,1-0.9,1.6-0.9c0.2,0,1.8,0.2,2.6,2.8l-0.5,6.3L-219.7,507.9L-219.7,507.9
	z M-187.6,495.1c-0.9,0.8-2.3,0.9-3.2,0.8l-11.4-10.4c-0.6-0.6-1.6-0.5-2.1,0.1c-0.6,0.6-0.5,1.6,0.1,2.1l11,10
	c-0.1,1.3-0.5,2.3-1.2,2.9c-0.9,0.9-2.3,1.1-3.1,1.1l-10.7-10.3c-0.6-0.6-1.5-0.6-2.1,0c-0.6,0.6-0.6,1.5,0,2.1l10.4,9.9
	c-0.2,1.1-0.7,1.9-1.4,2.4c-0.7,0.5-1.6,0.7-2.3,0.7c0,0-0.1-0.1-0.1-0.1l-9.4-8.9c-0.6-0.6-1.5-0.5-2.1,0.1
	c-0.6,0.6-0.5,1.6,0.1,2.1l8.2,7.7l0,0.1c-0.3,1.3-0.9,1.6-1.1,1.7c-1.2,0.5-3.2-0.4-3.9-0.8l-4.7-3.3l0.4-4.2l-0.1-0.3
	c-0.9-3.4-2.9-4.7-4.5-5.2c-1.7-3.5-4.2-4.1-5.6-4.1c-0.4,0-0.8,0-1.1,0.1c-1-3.2-3-3.8-4.3-3.8c-1.5,0-2.9,0.8-3.9,1.4
	c-1.4-1.5-2.8-2.2-4.3-2.2c-1.6,0-3,0.9-4.3,2.5l-17.5-12.5l13.4-20.3c1.8,1.3,5.5,3.7,9.7,5.8c0.4,0.2,1,0.2,1.4,0
	c3.3-1.8,7.8-2.9,11.4-3.7c-0.9,0.8-2,1.9-3.2,3.1c-4.9,5.1-2.8,8.2-2.5,8.6c1.2,1.4,2.9,2.1,4.8,2.1c4.2,0,8.8-3.6,10.2-4.7
	l3.6-0.4c2.5,8.5,12.1,12.2,14.1,12.9l11.7,11.7c0.1,0.1,0.2,0.1,0.2,0.2C-186.7,493.7-187.1,494.5-187.6,495.1z M-185.6,489.5
	l-11.2-11.2c-0.2-0.2-0.4-0.3-0.6-0.4c-0.1,0-11.1-3.4-12.8-12c-0.1-0.7-0.8-1.2-1.5-1.2c-0.1,0-0.1,0-0.2,0l-5.4,0.6
	c-0.3,0-0.6,0.2-0.8,0.4c-1.3,1.2-5.5,4.2-8.6,4.2c-1,0-1.8-0.3-2.4-1c-0.1-0.3-0.5-1.8,2.3-4.7c5.1-5.3,7.2-6.2,7.2-6.2
	c0,0,0.1,0,0.1,0c0,0,2.8-1.2,5.6-1.2c0.5,0,0.9,0,1.3,0.1c2.4,0.4,11.5,5.1,16.9,8.2c0.4,0.2,0.8,0.3,1.2,0.1l16.2-6.4l8.6,22.8
	L-185.6,489.5z"/>
<g class="st1">
	<defs>
		<path id="SVGID_1_" d="M309.3,302.7l-24.6-24.6c-0.4-0.4-0.9-0.7-1.4-0.8c-0.2-0.1-24.4-7.5-27.9-26.3c-0.3-1.6-1.7-2.7-3.2-2.7
			c-0.1,0-12.2,1.3-12.2,1.3c-0.7,0.1-1.3,0.4-1.8,0.8c-2.9,2.6-12,9.3-18.7,9.3c-2.2,0-3.9-0.7-5.3-2.2c-0.2-0.6-1.1-3.9,4.9-10.2
			c11.1-11.6,15.8-13.6,15.8-13.6c0.3-0.1,6.4-2.7,12.5-2.7c1,0,2,0.1,2.9,0.2c5.4,0.9,25,11.2,37,18c0.8,0.5,1.8,0.5,2.6,0.3
			l35.4-14l18.7,49.8L309.3,302.7z M304.8,314.9c-1.9,1.7-4.9,1.9-6.9,1.8l-25-22.7c-1.3-1.2-3.4-1.1-4.6,0.2
			c-1.2,1.3-1.1,3.4,0.2,4.6l24.1,21.9c-0.2,2.8-1,4.9-2.6,6.4c-2.1,1.9-5,2.4-6.7,2.5l-23.5-22.4c-1.3-1.2-3.4-1.2-4.6,0.1
			c-1.2,1.3-1.2,3.4,0.1,4.6l22.7,21.7c-0.5,2.4-1.5,4.2-3.1,5.3c-1.5,1.1-3.4,1.4-5,1.5c-0.1-0.1-0.1-0.2-0.2-0.3l-20.4-19.4
			c-1.3-1.2-3.4-1.2-4.6,0.1c-1.2,1.3-1.2,3.4,0.1,4.6l17.8,16.9c-0.7,3.2-2,3.7-2.4,3.9c-2.6,1.1-7-0.9-8.5-1.7l-10.3-7.2l0.8-9.3
			l-0.1-0.6c-1.9-7.3-6.4-10.4-9.8-11.3c-3.7-7.7-9.2-8.9-12.2-8.9c-0.9,0-1.7,0.1-2.4,0.2c-2.2-7.1-6.6-8.3-9.3-8.3
			c-3.2,0-6.3,1.6-8.4,3.1c-3-3.2-6.1-4.9-9.3-4.9c-3.5,0-6.6,1.9-9.4,5.5l-38.3-27.4l29.2-44.4c4,2.8,12,8.1,21.3,12.7
			c1,0.5,2.1,0.5,3-0.1c7.1-3.9,17-6.4,24.8-8c-2,1.9-4.3,4.1-6.9,6.8c-10.7,11.2-6,18-5.4,18.8c2.6,3.1,6.2,4.7,10.4,4.7
			c9.2,0,19.3-7.8,22.3-10.2l7.9-0.9c5.4,18.6,26.4,26.6,30.9,28.1l25.7,25.7c0.1,0.1,0.3,0.2,0.5,0.3
			C306.8,311.8,306.1,313.7,304.8,314.9z M234.7,343c0,0.5-0.3,1.8-0.9,2.4c-0.1,0.1-0.5,0.5-1.6,0.5c-0.2,0-0.5,0-0.8,0
			c-4.4-0.6-7.1-4-7.9-5c-1.1-6,0.1-12.9,3-16.2c1.1-1.3,2.3-1.9,3.6-1.9c0.4,0,3.9,0.4,5.6,6.2l-1.1,13.8l0.1,0.2V343z
			 M215.1,340.7c-2.9,0-4.9-3.7-6.1-7c-1.2-6.5,5.4-15.6,8.5-19.1c0.5-0.2,1.6-0.6,2.8-0.6c2,0,3.7,1.1,5.1,3.2
			c-1.4,0.7-2.7,1.8-3.8,3.1c-3.8,4.6-5.6,12.4-4.6,20C216.4,340.5,215.8,340.7,215.1,340.7z M195,324.8c-0.9-4.9,2.1-10,4.7-13.3
			l2.2-2.1c1.4-1.4,4.5-3.5,6.7-3.5c1.9,0,2.9,2.5,3.4,5c-2.8,3.3-9.5,12.2-9.6,20.9c-0.5,0.1-1.1,0.2-1.8,0.2
			C199.5,332.1,196.2,332.1,195,324.8z M183.9,315.8c-0.6-1.4-0.5-3,0.3-4.8c2-4.3,4.5-6.9,6.5-6.9c1.2,0,2.7,0.9,4.3,2.6
			c-2.5,3.1-5.7,8.1-6.6,13.6C186.6,319.2,184.7,317.7,183.9,315.8z M351.2,286.2l-20.3-55.8c-0.2-0.9-0.8-1.6-1.6-2
			c-0.8-0.4-1.7-0.5-2.6-0.2l-37.4,14.7c-6.3-3.5-30.3-16.8-37.8-18c-1.2-0.2-2.6-0.3-4-0.3c-6.5,0-12.8,2.3-14.5,3
			c-3.9,0.5-24.3,3.1-38.1,10c-12-6.2-21.5-13.3-21.6-13.4c-0.7-0.5-1.6-0.8-2.5-0.6c-0.9,0.2-1.7,0.7-2.2,1.4l-32.8,49.8
			c-1,1.5-0.6,3.4,0.8,4.5l41.4,29.5c-1.4,3.3-1.5,6.7-0.2,9.7c2.3,5.2,8,8.1,11,9.4c2.3,9.4,8.3,10.8,11.7,10.8
			c1.2,0,2.3-0.2,3.2-0.4c3.3,7.3,7.9,9,11.3,9c1.8,0,3.3-0.4,4.6-1c2,2.3,5.7,5.3,11,6c0.6,0.1,1.1,0.1,1.6,0.1
			c3.2,0,5.2-1.4,6.3-2.5c1.5-1.6,2.1-3.5,2.4-4.9l7.3,5.1c0.8,0.5,5.4,3.2,10.3,3.2c1.5,0,3-0.2,4.4-0.8c1.7-0.7,3.8-2.2,5.2-5.4
			c2.8,0.1,7-0.2,10.6-2.6c2.7-1.9,4.6-4.6,5.5-8.2c2.8-0.2,6.9-1.1,10.2-4.1c2.4-2.2,3.9-5.2,4.5-8.7c2.9,0,7-0.7,10.2-3.5
			c3-2.7,4.4-6.7,4.2-11.8l36.1-18C350.9,289.3,351.6,287.7,351.2,286.2z"/>
	</defs>
	<clipPath id="SVGID_2_" class="st2">
		<use xlink:href="#SVGID_1_"  style="overflow:visible;"/>
	</clipPath>
	<g class="st3">
		<defs>
			<rect id="SVGID_3_" x="-922.7" y="-1899.6" width="1440" height="4776"/>
		</defs>
		<clipPath id="SVGID_4_">
			<use xlink:href="#SVGID_3_"  style="overflow:visible;"/>
		</clipPath>
		<rect x="130.3" y="218.4" class="st4" width="226" height="139.8"/>
	</g>
</g>
</svg>
