<?xml version="1.0" encoding="utf-8"?>
<!-- Generator: Adobe Illustrator 19.1.0, SVG Export Plug-In . SVG Version: 6.00 Build 0)  -->
<svg version="1.1" id="Calque_1" xmlns="http://www.w3.org/2000/svg" xmlns:xlink="http://www.w3.org/1999/xlink" x="0px" y="0px"
	 viewBox="-244.6 354.4 99.2 99.2" style="enable-background:new -244.6 354.4 99.2 99.2;" xml:space="preserve">
<style type="text/css">
	.st0{fill:#FFFFFF;}
</style>
<g>
	<path class="st0" d="M-154.5,399.5c0.4-1.3,0.7-3.4,0-5.7c-0.9-2.7-3-4.8-6.2-6.3c-0.3-0.1-0.6-0.2-0.9-0.2h-11.7
		c2.8-4.2,6.4-12,3.7-20.1c0-0.1-0.1-0.2-0.1-0.2c-1.2-2.4-4.4-6.1-9-5.1h-0.1c-0.2,0.1-5.2,1.7-4.9,9.5c0,0.1-0.1,5.6-4.8,8.8
		c-14.8,9.5-17.6,12.5-18.3,13.5c-1.3,1-4.7,3.2-7,2.6c-0.6-0.1-1.2,0-1.7,0.4c-0.5,0.4-0.8,1-0.8,1.6v29c0,1.1,0.8,1.9,1.9,2
		c4.6,0.3,17.6,1.9,21.6,6.4c0.4,0.4,0.9,0.6,1.5,0.6h24c0.1,0,0.2,0,0.2,0c0.2,0,6.1-0.8,8.9-4.9c1.3-1.9,1.7-4.2,1.3-6.7
		c2.5-2.2,5.2-6.4,2.9-11.9c1-1.2,2.4-3.3,2.4-5.9C-151.4,404.2-152.4,401.8-154.5,399.5z M-157.6,410.7c-0.7,0.6-1,1.7-0.5,2.5
		c3,5.4-1.5,8.5-2.1,8.8c-0.7,0.5-1.1,1.4-0.9,2.2c0.5,2,0.4,3.5-0.5,4.8c-1.6,2.4-5.4,3.1-6,3.2h-23c-5.3-4.9-17.1-6.4-21.8-6.9
		v-25c4-0.3,7.8-3.4,8.3-3.8c0.2-0.1,0.3-0.4,0.5-0.6c0.5-0.8,4.7-4.4,17.1-12.5c6.6-4.3,6.7-11.8,6.7-12.2
		c-0.2-4.5,1.8-5.5,2.1-5.6c2.3-0.5,4,2.3,4.4,2.9c3.2,9.7-5.3,19.3-5.4,19.4c-0.5,0.6-0.7,1.4-0.3,2.2c0.3,0.7,1,1.2,1.8,1.2h15.3
		c1.9,1,3.2,2.3,3.7,3.8c0.7,2.1-0.2,4.1-0.2,4.1c-0.4,0.8-0.2,1.8,0.4,2.4c1.8,1.7,2.8,3.4,2.7,5.1
		C-155.5,409-157.6,410.7-157.6,410.7z"/>
	<path class="st0" d="M-233.3,434.3h8c3.3,0,6-2.7,6-6v-31c0-3.3-2.7-6-6-6h-8c-3.3,0-6,2.7-6,6v31
		C-239.3,431.6-236.6,434.3-233.3,434.3z M-235.3,397.3c0-1.1,0.9-2,2-2h8c1.1,0,2,0.9,2,2v31c0,1.1-0.9,2-2,2h-8c-1.1,0-2-0.9-2-2
		V397.3z"/>
</g>
</svg>
