<?xml version="1.0" encoding="utf-8"?>
<!-- Generator: Adobe Illustrator 19.1.0, SVG Export Plug-In . SVG Version: 6.00 Build 0)  -->
<svg version="1.1" id="Calque_1" xmlns="http://www.w3.org/2000/svg" xmlns:xlink="http://www.w3.org/1999/xlink" x="0px" y="0px"
	 viewBox="-246.6 371.8 99.2 99.2" style="enable-background:new -246.6 371.8 99.2 99.2;" xml:space="preserve">
<style type="text/css">
	.st0{display:none;fill:#F70B0B;}
	.st1{fill:none;}
	.st2{fill:#FFFFFF;}
</style>
<rect x="-256.7" y="355.1" class="st0" width="135.1" height="97"/>
<g>
	<path class="st1" d="M-225.8,398.8v1.6h6.2c0-1,0.1-1.8,0-2.3c-1.1-0.2-2.8,0.1-4.7-0.1c0,0-0.1,0-0.1,0c-0.1,0-0.3,0-0.4,0h0
		c-0.4,0-0.9,0.1-1,0.1c0,0-0.1,0-0.1,0c0,0,0,0.1,0,0.3C-225.9,398.5-225.8,398.6-225.8,398.8z"/>
	<path class="st1" d="M-160.6,403.6c-2.7-0.5-5.6-0.1-8.7-0.2c-0.5,0.1-0.9-0.1-1.3-0.4c0,0-0.1-0.1-0.1-0.1
		c-0.3-0.3-0.4-0.8-0.4-1.2c0-1.5,0.1-2.9-0.1-4.1c-0.2-1.2-0.5-2-1.5-2.7c-1.9-1.2-4.7-0.5-7.9-0.7c-5.1,0-10.3,0-15.4,0h0
		c-3.1,0-6.1,0-9.2,0c-1.2,0.1-2,0.7-2.6,1.7c-0.6,1-0.9,2.3-0.7,3.5c0,0.1,0,0.1,0,0.2v2c0.1,0.5-0.1,0.9-0.4,1.3c0,0,0,0,0,0
		c0,0,0,0,0,0c-0.3,0.3-0.8,0.5-1.3,0.4h-20.1c-0.1,0-0.1,0-0.2,0c-2.7-0.4-5.6,1.4-5.8,4.1c-0.1,11.7,0,23.4,0,35
		c0,0.1,0,0.1,0,0.2c-0.2,1.3,0.2,2.8,0.9,3.9c0.7,1.1,1.8,1.8,3.1,1.9c23,0.1,46,0,69,0c0.1,0,0.1,0,0.2,0c2.7,0.4,5.6-1.4,5.8-4.1
		c0.1-11.6,0-23.2,0-34.8c0-0.1,0-0.1,0-0.2c0.1-1.3-0.1-2.7-0.6-3.7C-158.6,404.7-159.4,404-160.6,403.6z M-223.9,445.7h-4
		c-1.6,0-3.2-0.4-4.3-1.5c-1.1-1.1-1.6-2.6-1.6-4.4v-9.7c0-0.8,0.6-1.5,1.5-1.5c0,0,0,0,0,0c0.8,0,1.5,0.7,1.5,1.5v9.7
		c0,1.2,0.3,1.9,0.7,2.2c0.4,0.4,1.1,0.6,2.2,0.6h4c0,0,0,0,0,0c0.8,0,1.5,0.7,1.5,1.5C-222.4,445-223.1,445.7-223.9,445.7z
		 M-219,414.7c0,0.8-0.7,1.5-1.5,1.5h-8.9c-0.8,0-1.5-0.7-1.5-1.5v-1.5c0-0.8,0.7-1.5,1.5-1.5h8.9c0.8,0,1.5,0.7,1.5,1.5V414.7z
		 M-189.8,444.1c-11.3,0-20.5-9.2-20.5-20.5c0-11.3,9.2-20.5,20.5-20.5c11.3,0,20.5,9.2,20.5,20.5
		C-169.3,434.9-178.5,444.1-189.8,444.1z"/>
	<path class="st1" d="M-189.8,406.1c-9.7,0-17.5,7.8-17.5,17.5c0,9.7,7.8,17.5,17.5,17.5c9.7,0,17.5-7.8,17.5-17.5
		C-172.3,413.9-180.1,406.1-189.8,406.1z M-189.8,433.7c-5.5,0-9.9-4.6-9.9-10.1c0,0,0,0,0,0c0-0.8,0.7-1.5,1.5-1.5
		c0.8,0,1.5,0.7,1.5,1.5c0,4,3.1,7.1,6.9,7.1c3.8,0,6.9-3.1,6.9-7.1c0-4-3.1-7.1-6.9-7.1c0,0,0,0,0,0c-0.8,0-1.5-0.7-1.5-1.5
		c0-0.8,0.7-1.5,1.5-1.5c5.5,0,9.9,4.6,9.9,10.1C-179.9,429.2-184.3,433.7-189.8,433.7z"/>
	<path class="st2" d="M-189.8,403.1c-11.3,0-20.5,9.2-20.5,20.5c0,11.3,9.2,20.5,20.5,20.5c11.3,0,20.5-9.2,20.5-20.5
		C-169.3,412.3-178.5,403.1-189.8,403.1z M-189.8,441.1c-9.7,0-17.5-7.8-17.5-17.5c0-9.7,7.8-17.5,17.5-17.5
		c9.7,0,17.5,7.8,17.5,17.5C-172.3,433.3-180.1,441.1-189.8,441.1z"/>
	<path class="st2" d="M-155.4,404.4c-0.9-1.7-2.4-3.1-4.4-3.7c0,0-0.1,0-0.1,0c-2.8-0.5-5.5-0.3-8-0.3c0-1,0-2.1-0.1-3.3
		c-0.3-1.7-1.1-3.6-2.9-4.8c0,0,0,0,0,0c-1.6-1-3.3-1.2-5-1.2l0,0c-1.6,0-3.1,0.2-4.4,0.1c0,0-0.1,0-0.1,0c-8.2,0-16.5,0-24.8,0
		c0,0-0.1,0-0.1,0c-2.2,0.2-3.9,1.4-5,3c-1,1.6-1.4,3.5-1.2,5.4v0.7h-4.9c0.1-1.1,0.3-2.6-0.5-4.2c-0.2-0.3-0.4-0.6-0.7-0.7
		c-2.4-1-4.6-0.4-6.1-0.5c-1-0.2-2.2-0.2-3.3,0.4c-0.6,0.3-1.1,0.8-1.4,1.5c-0.3,0.6-0.3,1.4-0.2,2.1v1.4h-1.5
		c-4.2-0.6-8.8,2.3-9.1,6.9c0,0,0,0.1,0,0.1c-0.1,11.7,0,23.4,0,35c-0.3,2.1,0.2,4.2,1.4,5.9c1.2,1.7,3.1,3.1,5.4,3.3
		c0,0,0.1,0,0.1,0c23,0.1,46,0,69,0c4.2,0.6,8.8-2.3,9.1-6.9c0,0,0-0.1,0-0.1c0.1-11.6,0-23.2,0-34.8
		C-154.3,408-154.6,406.1-155.4,404.4z M-225.9,398.1C-225.9,398.1-225.9,398.1-225.9,398.1c0.2-0.1,0.6-0.2,1.1-0.2h0
		c0.1,0,0.3,0,0.4,0c0,0,0.1,0,0.1,0c1.9,0.2,3.5-0.1,4.7,0.1c0.1,0.6,0,1.4,0,2.3h-6.2v-1.6c0-0.1,0-0.2,0-0.4
		C-225.9,398.2-225.9,398.1-225.9,398.1z M-157.5,409.5c0,0.1,0,0.1,0,0.2c0,11.6,0,23.2,0,34.8c-0.2,2.7-3.1,4.5-5.8,4.1
		c-0.1,0-0.1,0-0.2,0c-23,0-46,0-69,0c-1.3-0.1-2.4-0.8-3.1-1.9c-0.7-1.1-1.1-2.6-0.9-3.9c0-0.1,0-0.1,0-0.2c0-11.7,0-23.4,0-35
		c0.2-2.7,3.1-4.5,5.8-4.1c0.1,0,0.1,0,0.2,0h20.1c0.5,0.1,1-0.1,1.3-0.4c0,0,0,0,0,0c0,0,0,0,0,0c0.3-0.3,0.5-0.8,0.4-1.3v-2
		c0-0.1,0-0.1,0-0.2c-0.2-1.2,0.1-2.5,0.7-3.5c0.6-1,1.5-1.6,2.6-1.7c3.1,0,6.1,0,9.2,0h0c5.1,0,10.3,0,15.4,0
		c3.2,0.2,6-0.4,7.9,0.7c1,0.6,1.4,1.4,1.5,2.7c0.2,1.2,0.1,2.6,0.1,4.1c-0.1,0.4,0.1,0.9,0.3,1.2c0,0,0.1,0.1,0.1,0.1
		c0.3,0.3,0.8,0.5,1.3,0.4c3.1,0.1,6.1-0.2,8.7,0.2c1.2,0.3,1.9,1.1,2.5,2.2C-157.6,406.9-157.3,408.2-157.5,409.5z"/>
	<path class="st2" d="M-220.5,411.7h-8.9c-0.8,0-1.5,0.7-1.5,1.5v1.5c0,0.8,0.7,1.5,1.5,1.5h8.9c0.8,0,1.5-0.7,1.5-1.5v-1.5
		C-219,412.4-219.7,411.7-220.5,411.7z"/>
	<path class="st2" d="M-223.9,442.7C-223.9,442.7-223.9,442.7-223.9,442.7h-4c-1.1,0-1.8-0.3-2.2-0.6c-0.4-0.4-0.7-1-0.7-2.2v-9.7
		c0-0.8-0.6-1.5-1.5-1.5c0,0,0,0,0,0c-0.8,0-1.5,0.7-1.5,1.5v9.7c0,1.8,0.5,3.3,1.6,4.4c1.1,1.1,2.6,1.5,4.3,1.5h4
		c0.8,0,1.5-0.7,1.5-1.5C-222.4,443.4-223.1,442.7-223.9,442.7z"/>
	<path class="st2" d="M-189.8,413.5c-0.8,0-1.5,0.6-1.5,1.5c0,0.8,0.7,1.5,1.5,1.5c0,0,0,0,0,0c3.8,0,6.9,3.2,6.9,7.1
		c0,4-3.1,7.1-6.9,7.1c-3.8,0-6.9-3.1-6.9-7.1c0-0.8-0.6-1.5-1.5-1.5c-0.8,0-1.5,0.7-1.5,1.5c0,0,0,0,0,0c0,5.6,4.4,10.1,9.9,10.1
		c5.5,0,9.9-4.6,9.9-10.1C-179.9,418-184.3,413.5-189.8,413.5z"/>
</g>
</svg>
