<?xml version="1.0" encoding="utf-8"?>
<!-- Generator: Adobe Illustrator 19.1.0, SVG Export Plug-In . SVG Version: 6.00 Build 0)  -->
<svg version="1.1" id="Calque_1" xmlns="http://www.w3.org/2000/svg" xmlns:xlink="http://www.w3.org/1999/xlink" x="0px" y="0px"
	 viewBox="-1367 2785.1 99.2 99.2" style="enable-background:new -1367 2785.1 99.2 99.2;" xml:space="preserve">
<style type="text/css">
	.st0{fill:#FBB901;}
</style>
<g>
	<path class="st0" d="M-1271.8,2837.8h-13.1c0.4-1,0.7-2.2,0.7-3.5c0-3.5-4.5-8.6-9.6-10.9c-0.1-0.1-0.3-0.1-0.4-0.1v-6.9
		c0-0.7-0.5-1.2-1.2-1.2h-7.9c0.5-1.1,0.9-2.3,1.1-3.6l0.1-0.1c0.1-0.2,0.1-0.4,0-0.7c0-0.4,0-0.7,0-1.1c0-7.3-5.9-13.3-13.3-13.3
		s-13.3,5.9-13.3,13.3c0,1.9,0.4,3.8,1.2,5.5h-7.9c-0.7,0-1.2,0.5-1.2,1.2v6.9c-0.1,0-0.2,0-0.3,0.1c-7.5,3.4-11.2,9.2-12.2,10.9
		c-1.9,0.5-3.4,1.8-4.3,3.5h-8.4c-0.7,0-1.2,0.5-1.2,1.2c0,0.7,0.5,1.2,1.2,1.2h7.6c0,0.3-0.1,0.5-0.1,0.8c0,0.5,0.1,1.1,0.2,1.7
		c0,0.2,0.1,0.3,0.3,0.5c-0.3,0.6-0.5,1.3-0.5,1.9c0,0.4,0.1,0.9,0.3,1.4c0.2,0.5,0.6,0.8,1.2,0.8h11.2c0.5,0,1-0.3,1.2-0.8
		c0.2-0.5,0.3-1,0.3-1.4c0-0.7-0.2-1.3-0.5-1.9c0.1-0.1,0.2-0.3,0.3-0.5c0.2-0.6,0.2-1.2,0.2-1.7c0-0.3,0-0.5-0.1-0.8h3.6v7
		c0,0.7,0.5,1.2,1.2,1.2h40c0.6,0,1.1-0.5,1.2-1.1c3.4,1.9,3.9,4.9,3.5,8.4h-64.3c-0.7,0-1.2,0.5-1.2,1.2s0.5,1.2,1.2,1.2h64
		c-0.1,0.5-0.2,1.1-0.3,1.7c-0.9,5.1-1.9,10.8,3.3,14.2c0.2,0.1,0.4,0.2,0.7,0.2c0.4,0,0.8-0.2,1-0.6c0.4-0.6,0.2-1.3-0.3-1.7
		c-3.8-2.5-3-6.8-2.2-11.7c0.1-0.7,0.2-1.4,0.3-2.1h11.2c0.7,0,1.2-0.5,1.2-1.2s-0.5-1.2-1.2-1.2h-10.9c0.4-4.4-0.4-8.6-6-11.1v-0.9
		c2.4-0.3,5.5-1.3,7.6-3.5h14.7c0.7,0,1.2-0.5,1.2-1.2C-1270.6,2838.4-1271.1,2837.8-1271.8,2837.8z M-1304.6,2809.3
		c-1.8-0.7-3.3-1.5-4.2-2.1c1.5-0.8,2.6-1.5,3.3-2C-1305,2806.5-1304.7,2807.9-1304.6,2809.3z M-1315.4,2798.9
		c3.5,0,6.6,1.7,8.5,4.2c-2.1,1.4-8,4.9-19.1,8.5c-0.1-0.6-0.2-1.3-0.2-1.9C-1326.2,2803.8-1321.4,2798.9-1315.4,2798.9z
		 M-1325.3,2814c6.1-1.9,10.7-3.9,13.9-5.5c1,0.7,3.3,2.1,6.5,3.3c-0.2,1.2-0.6,2.3-1.3,3.4h-18.6
		C-1325,2814.8-1325.2,2814.4-1325.3,2814z M-1347.2,2836.5c2.5,0,4.6,2,4.6,4.6c0,0.1,0,0.1,0,0.2h-0.4h-8.4h-0.4
		c0-0.1,0-0.1,0-0.2C-1351.8,2838.6-1349.8,2836.5-1347.2,2836.5z M-1351.8,2845c0.1-0.5,0.5-0.9,0.8-1.2h7.5
		c0.3,0.3,0.7,0.7,0.8,1.2H-1351.8z M-1341,2837.8c-1-1.9-2.9-3.3-5.1-3.7c1.5-2.1,4.5-5.7,9.5-8.2v11.8
		C-1336.6,2837.8-1341,2837.8-1341,2837.8z M-1296.6,2846h-37.5v-28.4h8.8h20h8.8L-1296.6,2846L-1296.6,2846z M-1294.2,2841.3v-7.2
		l1.2-0.3c0.7-0.2,1.1-0.8,0.9-1.5c-0.2-0.7-0.8-1.1-1.5-0.9l-0.6,0.1v-5.6c4.4,2.2,7.5,6.4,7.5,8.4
		C-1286.6,2839.5-1291.7,2840.9-1294.2,2841.3z"/>
	<path class="st0" d="M-1315.4,2827.3c-2.5,0-4.6,2.1-4.6,4.6s2.1,4.6,4.6,4.6s4.6-2.1,4.6-4.6
		C-1310.8,2829.3-1312.9,2827.3-1315.4,2827.3z M-1315.4,2834c-1.2,0-2.1-1-2.1-2.1s1-2.1,2.1-2.1c1.2,0,2.1,1,2.1,2.1
		S-1314.2,2834-1315.4,2834z"/>
</g>
</svg>
