<?xml version="1.0" encoding="utf-8"?>
<!-- Generator: Adobe Illustrator 19.1.0, SVG Export Plug-In . SVG Version: 6.00 Build 0)  -->
<svg version="1.1" id="Calque_1" xmlns="http://www.w3.org/2000/svg" xmlns:xlink="http://www.w3.org/1999/xlink" x="0px" y="0px"
	 viewBox="-1364.9 2785 99.2 99.2" style="enable-background:new -1364.9 2785 99.2 99.2;" xml:space="preserve">
<style type="text/css">
	.st0{fill:#FFFFFF;}
	.st1{display:none;clip-path:url(#SVGID_2_);}
	.st2{display:inline;}
	.st3{clip-path:url(#SVGID_4_);fill:#F5A623;}
</style>
<path class="st0" d="M-1266,2838.1l-9.3-25.5c-0.1-0.4-0.4-0.7-0.7-0.9c-0.4-0.2-0.8-0.2-1.2-0.1l-17.1,6.7
	c-2.9-1.6-13.9-7.7-17.3-8.3c-0.6-0.1-1.2-0.1-1.8-0.1c-3,0-5.9,1.1-6.6,1.4c-1.8,0.2-11.1,1.4-17.4,4.6c-5.5-2.8-9.9-6.1-9.9-6.1
	c-0.3-0.2-0.8-0.4-1.2-0.3c-0.4,0.1-0.8,0.3-1,0.7l-15,22.8c-0.4,0.7-0.3,1.6,0.4,2l18.9,13.5c-0.7,1.5-0.7,3.1-0.1,4.4
	c1,2.4,3.7,3.7,5,4.3c1.1,4.3,3.8,5,5.4,5c0.5,0,1-0.1,1.5-0.2c1.5,3.4,3.6,4.1,5.2,4.1l0,0c0.8,0,1.5-0.2,2.1-0.4
	c0.9,1,2.6,2.4,5,2.7c0.3,0,0.5,0,0.7,0c1.5,0,2.4-0.6,2.9-1.1c0.7-0.7,1-1.6,1.1-2.3l3.3,2.3l0.1,0.1c0.3,0.2,2.4,1.4,4.6,1.4
	c0.7,0,1.4-0.1,2-0.4c0.8-0.3,1.8-1,2.4-2.4c1.3,0.1,3.2-0.1,4.9-1.2c1.2-0.9,2.1-2.1,2.5-3.8c1.3-0.1,3.2-0.5,4.7-1.9
	c1.1-1,1.8-2.4,2.1-4c1.3,0,3.2-0.3,4.7-1.6c1.4-1.2,2-3.1,1.9-5.4l16.5-8.3C-1266.2,2839.5-1265.8,2838.8-1266,2838.1z
	 M-1342.6,2851.7c-0.3-0.7-0.2-1.4,0.1-2.2c0.9-2,2.1-3.2,3-3.2c0.6,0,1.2,0.4,2,1.2c-1.1,1.4-2.6,3.7-3,6.2
	C-1341.3,2853.2-1342.2,2852.5-1342.6,2851.7z M-1337.5,2855.8L-1337.5,2855.8c-0.4-2.2,1-4.6,2.1-6.1l1-1c0.7-0.6,2.1-1.6,3.1-1.6
	c0.9,0,1.3,1.1,1.6,2.3c-1.3,1.5-4.3,5.6-4.4,9.6c-0.2,0.1-0.5,0.1-0.8,0.1C-1335.4,2859.1-1336.9,2859.1-1337.5,2855.8z
	 M-1328.3,2863.1c-1.3,0-2.2-1.7-2.8-3.2l0,0c-0.5-3,2.5-7.1,3.9-8.7c0.2-0.1,0.7-0.3,1.3-0.3c0.9,0,1.7,0.5,2.4,1.5
	c-0.6,0.3-1.2,0.8-1.8,1.4c-1.7,2.1-2.5,5.7-2.1,9.2C-1327.7,2863-1328,2863.1-1328.3,2863.1z M-1319.3,2864.1
	c0,0.2-0.1,0.8-0.4,1.1c-0.1,0.1-0.2,0.2-0.7,0.2c-0.1,0-0.2,0-0.4,0c-2-0.3-3.3-1.8-3.6-2.3c-0.5-2.8,0.1-5.9,1.4-7.4
	c0.5-0.6,1-0.9,1.6-0.9c0.2,0,1.8,0.2,2.6,2.8l-0.5,6.3V2864.1L-1319.3,2864.1z M-1287.2,2851.3c-0.9,0.8-2.3,0.9-3.2,0.8
	l-11.4-10.4c-0.6-0.6-1.6-0.5-2.1,0.1c-0.6,0.6-0.5,1.6,0.1,2.1l11,10c-0.1,1.3-0.5,2.3-1.2,2.9c-0.9,0.9-2.3,1.1-3.1,1.1
	l-10.7-10.3c-0.6-0.6-1.5-0.6-2.1,0c-0.6,0.6-0.6,1.5,0,2.1l10.4,9.9c-0.2,1.1-0.7,1.9-1.4,2.4c-0.7,0.5-1.6,0.7-2.3,0.7l-0.1-0.1
	l-9.4-8.9c-0.6-0.6-1.5-0.5-2.1,0.1c-0.6,0.6-0.5,1.6,0.1,2.1l8.2,7.7v0.1c-0.3,1.3-0.9,1.6-1.1,1.7c-1.2,0.5-3.2-0.4-3.9-0.8
	l-4.7-3.3l0.4-4.2l-0.1-0.3c-0.9-3.4-2.9-4.7-4.5-5.2c-1.7-3.5-4.2-4.1-5.6-4.1c-0.4,0-0.8,0-1.1,0.1c-1-3.2-3-3.8-4.3-3.8
	c-1.5,0-2.9,0.8-3.9,1.4c-1.4-1.5-2.8-2.2-4.3-2.2c-1.6,0-3,0.9-4.3,2.5l-17.5-12.5l13.4-20.3c1.8,1.3,5.5,3.7,9.7,5.8
	c0.4,0.2,1,0.2,1.4,0c3.3-1.8,7.8-2.9,11.4-3.7c-0.9,0.8-2,1.9-3.2,3.1c-4.9,5.1-2.8,8.2-2.5,8.6c1.2,1.4,2.9,2.1,4.8,2.1
	c4.2,0,8.8-3.6,10.2-4.7l3.6-0.4c2.5,8.5,12.1,12.2,14.1,12.9l11.7,11.7c0.1,0.1,0.2,0.1,0.2,0.2
	C-1286.3,2849.9-1286.7,2850.7-1287.2,2851.3z M-1285.2,2845.7l-11.2-11.2c-0.2-0.2-0.4-0.3-0.6-0.4c-0.1,0-11.1-3.4-12.8-12
	c-0.1-0.7-0.8-1.2-1.5-1.2c-0.1,0-0.1,0-0.2,0l-5.4,0.6c-0.3,0-0.6,0.2-0.8,0.4c-1.3,1.2-5.5,4.2-8.6,4.2c-1,0-1.8-0.3-2.4-1
	c-0.1-0.3-0.5-1.8,2.3-4.7c5.1-5.3,7.2-6.2,7.2-6.2h0.1c0,0,2.8-1.2,5.6-1.2c0.5,0,0.9,0,1.3,0.1c2.4,0.4,11.5,5.1,16.9,8.2
	c0.4,0.2,0.8,0.3,1.2,0.1l16.2-6.4l8.6,22.8L-1285.2,2845.7z"/>
<g>
	<g>
		<defs>
			<path id="SVGID_1_" d="M-954.5,2746.7l-24.6-24.6c-0.4-0.4-0.9-0.7-1.4-0.8c-0.2-0.1-24.4-7.5-27.9-26.3
				c-0.3-1.6-1.7-2.7-3.2-2.7c-0.1,0-12.2,1.3-12.2,1.3c-0.7,0.1-1.3,0.4-1.8,0.8c-2.9,2.6-12,9.3-18.7,9.3c-2.2,0-3.9-0.7-5.3-2.2
				c-0.2-0.6-1.1-3.9,4.9-10.2c11.1-11.6,15.8-13.6,15.8-13.6c0.3-0.1,6.4-2.7,12.5-2.7c1,0,2,0.1,2.9,0.2c5.4,0.9,25,11.2,37,18
				c0.8,0.5,1.8,0.5,2.6,0.3l35.4-14l18.7,49.8L-954.5,2746.7z M-959,2758.9c-1.9,1.7-4.9,1.9-6.9,1.8l-25-22.7
				c-1.3-1.2-3.4-1.1-4.6,0.2s-1.1,3.4,0.2,4.6l24.1,21.9c-0.2,2.8-1,4.9-2.6,6.4c-2.1,1.9-5,2.4-6.7,2.5l-23.5-22.4
				c-1.3-1.2-3.4-1.2-4.6,0.1c-1.2,1.3-1.2,3.4,0.1,4.6l22.7,21.7c-0.5,2.4-1.5,4.2-3.1,5.3c-1.5,1.1-3.4,1.4-5,1.5
				c-0.1-0.1-0.1-0.2-0.2-0.3l-20.4-19.4c-1.3-1.2-3.4-1.2-4.6,0.1c-1.2,1.3-1.2,3.4,0.1,4.6l17.8,16.9c-0.7,3.2-2,3.7-2.4,3.9
				c-2.6,1.1-7-0.9-8.5-1.7l-10.3-7.2l0.8-9.3l-0.1-0.6c-1.9-7.3-6.4-10.4-9.8-11.3c-3.7-7.7-9.2-8.9-12.2-8.9
				c-0.9,0-1.7,0.1-2.4,0.2c-2.2-7.1-6.6-8.3-9.3-8.3c-3.2,0-6.3,1.6-8.4,3.1c-3-3.2-6.1-4.9-9.3-4.9c-3.5,0-6.6,1.9-9.4,5.5
				l-38.3-27.4l29.2-44.4c4,2.8,12,8.1,21.3,12.7c1,0.5,2.1,0.5,3-0.1c7.1-3.9,17-6.4,24.8-8c-2,1.9-4.3,4.1-6.9,6.8
				c-10.7,11.2-6,18-5.4,18.8c2.6,3.1,6.2,4.7,10.4,4.7c9.2,0,19.3-7.8,22.3-10.2l7.9-0.9c5.4,18.6,26.4,26.6,30.9,28.1l25.7,25.7
				c0.1,0.1,0.3,0.2,0.5,0.3C-957,2755.8-957.7,2757.7-959,2758.9z M-1029.1,2787c0,0.5-0.3,1.8-0.9,2.4c-0.1,0.1-0.5,0.5-1.6,0.5
				c-0.2,0-0.5,0-0.8,0c-4.4-0.6-7.1-4-7.9-5c-1.1-6,0.1-12.9,3-16.2c1.1-1.3,2.3-1.9,3.6-1.9c0.4,0,3.9,0.4,5.6,6.2l-1.1,13.8
				L-1029.1,2787L-1029.1,2787L-1029.1,2787z M-1048.7,2784.7c-2.9,0-4.9-3.7-6.1-7c-1.2-6.5,5.4-15.6,8.5-19.1
				c0.5-0.2,1.6-0.6,2.8-0.6c2,0,3.7,1.1,5.1,3.2c-1.4,0.7-2.7,1.8-3.8,3.1c-3.8,4.6-5.6,12.4-4.6,20
				C-1047.4,2784.5-1048,2784.7-1048.7,2784.7z M-1068.8,2768.8c-0.9-4.9,2.1-10,4.7-13.3l2.2-2.1c1.4-1.4,4.5-3.5,6.7-3.5
				c1.9,0,2.9,2.5,3.4,5c-2.8,3.3-9.5,12.2-9.6,20.9c-0.5,0.1-1.1,0.2-1.8,0.2C-1064.3,2776.1-1067.6,2776.1-1068.8,2768.8z
				 M-1079.9,2759.8c-0.6-1.4-0.5-3,0.3-4.8c2-4.3,4.5-6.9,6.5-6.9c1.2,0,2.7,0.9,4.3,2.6c-2.5,3.1-5.7,8.1-6.6,13.6
				C-1077.2,2763.2-1079.1,2761.7-1079.9,2759.8z M-912.6,2730.2l-20.3-55.8c-0.2-0.9-0.8-1.6-1.6-2c-0.8-0.4-1.7-0.5-2.6-0.2
				l-37.4,14.7c-6.3-3.5-30.3-16.8-37.8-18c-1.2-0.2-2.6-0.3-4-0.3c-6.5,0-12.8,2.3-14.5,3c-3.9,0.5-24.3,3.1-38.1,10
				c-12-6.2-21.5-13.3-21.6-13.4c-0.7-0.5-1.6-0.8-2.5-0.6c-0.9,0.2-1.7,0.7-2.2,1.4l-32.8,49.8c-1,1.5-0.6,3.4,0.8,4.5l41.4,29.5
				c-1.4,3.3-1.5,6.7-0.2,9.7c2.3,5.2,8,8.1,11,9.4c2.3,9.4,8.3,10.8,11.7,10.8c1.2,0,2.3-0.2,3.2-0.4c3.3,7.3,7.9,9,11.3,9
				c1.8,0,3.3-0.4,4.6-1c2,2.3,5.7,5.3,11,6c0.6,0.1,1.1,0.1,1.6,0.1c3.2,0,5.2-1.4,6.3-2.5c1.5-1.6,2.1-3.5,2.4-4.9l7.3,5.1
				c0.8,0.5,5.4,3.2,10.3,3.2c1.5,0,3-0.2,4.4-0.8c1.7-0.7,3.8-2.2,5.2-5.4c2.8,0.1,7-0.2,10.6-2.6c2.7-1.9,4.6-4.6,5.5-8.2
				c2.8-0.2,6.9-1.1,10.2-4.1c2.4-2.2,3.9-5.2,4.5-8.7c2.9,0,7-0.7,10.2-3.5c3-2.7,4.4-6.7,4.2-11.8l36.1-18
				C-912.9,2733.3-912.2,2731.7-912.6,2730.2z"/>
		</defs>
		<clipPath id="SVGID_2_">
			<use xlink:href="#SVGID_1_"  style="overflow:visible;"/>
		</clipPath>
		<g class="st1">
			<g class="st2">
				<defs>
					<rect id="SVGID_3_" x="-2186.5" y="544.4" width="1440" height="4776"/>
				</defs>
				<clipPath id="SVGID_4_">
					<use xlink:href="#SVGID_3_"  style="overflow:visible;"/>
				</clipPath>
				<rect x="-1133.5" y="2662.4" class="st3" width="226" height="139.8"/>
			</g>
		</g>
	</g>
</g>
</svg>
